<?xml version="1.0" encoding="UTF-8" standalone="no" ?>
<!DOCTYPE svg PUBLIC "-//W3C//DTD SVG 1.1//EN" "http://www.w3.org/Graphics/SVG/1.1/DTD/svg11.dtd">
<svg xmlns="http://www.w3.org/2000/svg" xmlns:xlink="http://www.w3.org/1999/xlink" version="1.1" width="640" height="640" viewBox="0 0 640 640" xml:space="preserve">
<desc>Created with Fabric.js 4.6.0</desc>
<defs>
</defs>
<g transform="matrix(6.4 0 0 6.4 320.26 319.74)" id="Su0VAc7gkpqrW92QyUhVU"  >
<radialGradient id="SVGID_0" gradientUnits="userSpaceOnUse" gradientTransform="matrix(1 0 0 1 -50 -50)"  cx="49.999999999999986" cy="50" r="69.28868139495019" fx="49.999999999999986" fy="50">
<stop offset="0%" style="stop-color:#EE0000;stop-opacity: 1"/>
<stop offset="50%" style="stop-color:#F7D900;stop-opacity: 1"/>
<stop offset="100%" style="stop-color:#0AB43A;stop-opacity: 1"/>
</radialGradient>
<path style="stroke: rgb(164,29,131); stroke-width: 0; stroke-dasharray: none; stroke-linecap: butt; stroke-dashoffset: 0; stroke-linejoin: miter; stroke-miterlimit: 4; fill: url(#SVGID_0); fill-rule: nonzero; opacity: 1;" vector-effect="non-scaling-stroke"  transform=" translate(0, 0)" d="M -50 -50 L 50 -50 L 50 50 L -50 50 z" stroke-linecap="round" />
</g>
<g transform="matrix(0.8 0 0 0.8 321.49 302.73)" id="Xz20EEpfAaPrmap0MK8x9"  >
<radialGradient id="SVGID_1" gradientUnits="userSpaceOnUse" gradientTransform="matrix(1 0 0 1 -50 -50)"  cx="50.00000000000001" cy="50.000000000000014" r="42.66304341932481" fx="50.00000000000001" fy="50.000000000000014">
<stop offset="0%" style="stop-color:#FFFFFF;stop-opacity: 1"/>
<stop offset="76.1096301042307%" style="stop-color:#CEC0C0;stop-opacity: 1"/>
<stop offset="100%" style="stop-color:#000000;stop-opacity: 1"/>
</radialGradient>
<path style="stroke: rgb(115,185,233); stroke-width: 0; stroke-dasharray: none; stroke-linecap: butt; stroke-dashoffset: 0; stroke-linejoin: miter; stroke-miterlimit: 4; fill: url(#SVGID_1); fill-rule: nonzero; opacity: 1;" vector-effect="non-scaling-stroke"  transform=" translate(0, 0)" d="M 0 -50 C 27.6 -50 50 -27.6 50 0 C 50 27.6 27.6 50 0 50 C -27.6 50 -50 27.6 -50 0 C -50 -27.6 -27.6 -50 0 -50 z" stroke-linecap="round" />
</g>
<g transform="matrix(0.44 0 0 0.44 321.49 302.73)" id="eNxpEJh3bE1ZOPANXs9FC"  >
<path style="stroke: rgb(203,62,5); stroke-width: 0; stroke-dasharray: none; stroke-linecap: butt; stroke-dashoffset: 0; stroke-linejoin: miter; stroke-miterlimit: 4; fill: rgb(255,255,255); fill-rule: nonzero; opacity: 1;" vector-effect="non-scaling-stroke"  transform=" translate(-47.55, -45.23)" d="M 47.55283 0 L 61.65968 30.58359 L 95.10566 34.54915 L 70.37819 57.41641 L 76.94210000000001 90.45085 L 47.55284000000001 74 L 18.16358000000001 90.45085 L 24.72749000000001 57.416410000000006 L 0.000020000000009900987 34.549150000000004 L 33.44600000000001 30.583590000000004 z" stroke-linecap="round" />
</g>
<g transform="matrix(0.3 0 0 0.3 210.9 490.64)" id="MfJhNomDfU4agOQC2XS0r"  >
<radialGradient id="SVGID_2" gradientUnits="userSpaceOnUse" gradientTransform="matrix(1 0 0 1 -50 -50)"  cx="50.00000000000001" cy="50.000000000000014" r="42.66304341932481" fx="50.00000000000001" fy="50.000000000000014">
<stop offset="0%" style="stop-color:#FFFFFF;stop-opacity: 1"/>
<stop offset="76.1096301042307%" style="stop-color:#CEC0C0;stop-opacity: 1"/>
<stop offset="100%" style="stop-color:#000000;stop-opacity: 1"/>
</radialGradient>
<path style="stroke: rgb(115,185,233); stroke-width: 0; stroke-dasharray: none; stroke-linecap: butt; stroke-dashoffset: 0; stroke-linejoin: miter; stroke-miterlimit: 4; fill: url(#SVGID_2); fill-rule: nonzero; opacity: 1;" vector-effect="non-scaling-stroke"  transform=" translate(0, 0)" d="M 0 -50 C 27.6 -50 50 -27.6 50 0 C 50 27.6 27.6 50 0 50 C -27.6 50 -50 27.6 -50 0 C -50 -27.6 -27.6 -50 0 -50 z" stroke-linecap="round" />
</g>
<g transform="matrix(0.17 0 0 0.17 210.9 490.64)" id="9bwBmk44HsHsQtxbo-g5t"  >
<path style="stroke: rgb(203,62,5); stroke-width: 0; stroke-dasharray: none; stroke-linecap: butt; stroke-dashoffset: 0; stroke-linejoin: miter; stroke-miterlimit: 4; fill: rgb(255,255,255); fill-rule: nonzero; opacity: 1;" vector-effect="non-scaling-stroke"  transform=" translate(-47.55, -45.23)" d="M 47.55283 0 L 61.65968 30.58359 L 95.10566 34.54915 L 70.37819 57.41641 L 76.94210000000001 90.45085 L 47.55284000000001 74 L 18.16358000000001 90.45085 L 24.72749000000001 57.416410000000006 L 0.000020000000009900987 34.549150000000004 L 33.44600000000001 30.583590000000004 z" stroke-linecap="round" />
</g>
<g transform="matrix(0.25 0 0 0.25 479.41 412.92)" id="dl1iTdtXagwMxfZj-bHJr"  >
<radialGradient id="SVGID_3" gradientUnits="userSpaceOnUse" gradientTransform="matrix(1 0 0 1 -50 -50)"  cx="50.00000000000001" cy="50.000000000000014" r="42.66304341932481" fx="50.00000000000001" fy="50.000000000000014">
<stop offset="0%" style="stop-color:#FFFFFF;stop-opacity: 1"/>
<stop offset="76.1096301042307%" style="stop-color:#CEC0C0;stop-opacity: 1"/>
<stop offset="100%" style="stop-color:#000000;stop-opacity: 1"/>
</radialGradient>
<path style="stroke: rgb(115,185,233); stroke-width: 0; stroke-dasharray: none; stroke-linecap: butt; stroke-dashoffset: 0; stroke-linejoin: miter; stroke-miterlimit: 4; fill: url(#SVGID_3); fill-rule: nonzero; opacity: 1;" vector-effect="non-scaling-stroke"  transform=" translate(0, 0)" d="M 0 -50 C 27.6 -50 50 -27.6 50 0 C 50 27.6 27.6 50 0 50 C -27.6 50 -50 27.6 -50 0 C -50 -27.6 -27.6 -50 0 -50 z" stroke-linecap="round" />
</g>
<g transform="matrix(0.14 0 0 0.14 479.41 412.92)" id="a8pLpwKFENmNV6nzSuZAB"  >
<path style="stroke: rgb(203,62,5); stroke-width: 0; stroke-dasharray: none; stroke-linecap: butt; stroke-dashoffset: 0; stroke-linejoin: miter; stroke-miterlimit: 4; fill: rgb(255,255,255); fill-rule: nonzero; opacity: 1;" vector-effect="non-scaling-stroke"  transform=" translate(-47.55, -45.23)" d="M 47.55283 0 L 61.65968 30.58359 L 95.10566 34.54915 L 70.37819 57.41641 L 76.94210000000001 90.45085 L 47.55284000000001 74 L 18.16358000000001 90.45085 L 24.72749000000001 57.416410000000006 L 0.000020000000009900987 34.549150000000004 L 33.44600000000001 30.583590000000004 z" stroke-linecap="round" />
</g>
<g transform="matrix(0.35 0 0 0.35 257.66 569.88)" id="jrPZvVT4-fXS6Ek-Zq7TN"  >
<radialGradient id="SVGID_4" gradientUnits="userSpaceOnUse" gradientTransform="matrix(1 0 0 1 -50 -50)"  cx="50.00000000000001" cy="50.000000000000014" r="42.66304341932481" fx="50.00000000000001" fy="50.000000000000014">
<stop offset="0%" style="stop-color:#FFFFFF;stop-opacity: 1"/>
<stop offset="76.1096301042307%" style="stop-color:#CEC0C0;stop-opacity: 1"/>
<stop offset="100%" style="stop-color:#000000;stop-opacity: 1"/>
</radialGradient>
<path style="stroke: rgb(115,185,233); stroke-width: 0; stroke-dasharray: none; stroke-linecap: butt; stroke-dashoffset: 0; stroke-linejoin: miter; stroke-miterlimit: 4; fill: url(#SVGID_4); fill-rule: nonzero; opacity: 1;" vector-effect="non-scaling-stroke"  transform=" translate(0, 0)" d="M 0 -50 C 27.6 -50 50 -27.6 50 0 C 50 27.6 27.6 50 0 50 C -27.6 50 -50 27.6 -50 0 C -50 -27.6 -27.6 -50 0 -50 z" stroke-linecap="round" />
</g>
<g transform="matrix(0.19 0 0 0.19 257.66 569.88)" id="3RAFdVVDkNtp1uEMoQw4q"  >
<path style="stroke: rgb(203,62,5); stroke-width: 0; stroke-dasharray: none; stroke-linecap: butt; stroke-dashoffset: 0; stroke-linejoin: miter; stroke-miterlimit: 4; fill: rgb(255,255,255); fill-rule: nonzero; opacity: 1;" vector-effect="non-scaling-stroke"  transform=" translate(-47.55, -45.23)" d="M 47.55283 0 L 61.65968 30.58359 L 95.10566 34.54915 L 70.37819 57.41641 L 76.94210000000001 90.45085 L 47.55284000000001 74 L 18.16358000000001 90.45085 L 24.72749000000001 57.416410000000006 L 0.000020000000009900987 34.549150000000004 L 33.44600000000001 30.583590000000004 z" stroke-linecap="round" />
</g>
<g transform="matrix(0.25 0 0 0.44 220.32 11.5)" id="UiyXLLCVFTAjZ6uEGhnii"  >
<path style="stroke: rgb(0,0,0); stroke-width: 1; stroke-dasharray: none; stroke-linecap: round; stroke-dashoffset: 0; stroke-linejoin: round; stroke-miterlimit: 10; fill: none; fill-rule: nonzero; opacity: 1;" vector-effect="non-scaling-stroke"  transform=" translate(-7.38, 485.16)" d="M 7.382279517672463 -485.16063200330086 L 7.384279517672463 -485.16063200330086" stroke-linecap="round" />
</g>
<g transform="matrix(0.03 0 0 0.08 485.56 392.02)" style="" id="gJ0GOF05Odtb26RhX23ty"  >
		<text xml:space="preserve" font-family="Open Sans" font-size="20" font-style="normal" font-weight="normal" line-height="1.16" style="stroke: none; stroke-width: 1; stroke-dasharray: none; stroke-linecap: butt; stroke-dashoffset: 0; stroke-linejoin: miter; stroke-miterlimit: 4; fill: rgb(0,0,0); fill-rule: nonzero; opacity: 1; white-space: pre;" ><tspan x="-75" y="6.28" >Text</tspan></text>
</g>
<g transform="matrix(0.43 0 0 1.29 193.33 302.73)" style="" id="l6BX5nu_E8hT9XgTGv1n7"  >
		<text xml:space="preserve" font-family="Lexend Zetta" font-size="84" font-style="normal" font-weight="normal" letter-spacing="4.032" line-height="48" style="stroke: none; stroke-width: 0; stroke-dasharray: none; stroke-linecap: butt; stroke-dashoffset: 0; stroke-linejoin: miter; stroke-miterlimit: 4; fill: rgb(0,0,0); fill-rule: nonzero; opacity: 1; white-space: pre;" ><tspan x="-171.61" y="26.39" >s</tspan><tspan x="-100.63" y="26.39" >i</tspan><tspan x="-51.41" y="26.39" >r</tspan><tspan x="18.23" y="26.39" >u</tspan><tspan x="104.66" y="26.39" >s</tspan></text>
</g>
<g transform="matrix(0.43 0 0 1.29 466.91 302.73)" style="" id="y30LcsjJLsW9SwN63xZQu"  >
		<text xml:space="preserve" font-family="Lexend Zetta" font-size="84" font-style="normal" font-weight="normal" letter-spacing="4.032" line-height="48" style="stroke: none; stroke-width: 0; stroke-dasharray: none; stroke-linecap: butt; stroke-dashoffset: 0; stroke-linejoin: miter; stroke-miterlimit: 4; fill: rgb(0,0,0); fill-rule: nonzero; opacity: 1; white-space: pre;" ><tspan x="-182.93" y="26.39" >c</tspan><tspan x="-104.97" y="26.39" >l</tspan><tspan x="-57.01" y="26.39" >i</tspan><tspan x="-7.79" y="26.39" >c</tspan><tspan x="70.16" y="26.39" >k</tspan></text>
</g>
<g transform="matrix(1 0 0 1 452.99 309.63)" id="TdH0k-NLNnsP4A_bl1qxD"  >
<g style="" vector-effect="non-scaling-stroke"   >
		<g transform="matrix(0.07 0 0 0.23 0.55 0)" id="twKCrdfZqAUydv5gLXfDP"  >
<path style="stroke: rgb(0,0,0); stroke-width: 2; stroke-dasharray: none; stroke-linecap: round; stroke-dashoffset: 0; stroke-linejoin: round; stroke-miterlimit: 10; fill: rgb(252,134,29); fill-rule: nonzero; opacity: 1;" vector-effect="non-scaling-stroke"  transform=" translate(-198.73, 321.49)" d="M 114.25926745123135 -354.22502308824625 Q 114.26026745123136 -354.2260230882462 114.26026745123136 -357.67167069127396 Q 114.26026745123136 -361.1173182943017 115.98408983725648 -369.7314373018711 Q 117.7079122232816 -378.34555630944044 119.43173460930672 -383.51402771398205 Q 121.15555699533184 -388.6824991185237 122.87937938135701 -393.85097052306537 Q 124.60320176738219 -399.019441927607 129.7746689254576 -405.9107371336625 Q 134.94613608353302 -412.80203233971804 136.66995846955814 -416.2476799427458 Q 138.39378085558326 -419.69332754577357 140.11760324160844 -424.8617989503152 Q 141.8414256276336 -430.0302703548568 140.11760324160844 -431.75309415637065 Q 138.39378085558326 -433.4759179578845 138.39378085558326 -436.9215655609123 Q 138.39378085558326 -440.36721316394005 138.39378085558326 -442.0900369654539 Q 138.39378085558326 -443.8128607669678 143.56524801365867 -445.53568456848166 Q 148.7367151717341 -447.2585083699955 150.46053755775927 -448.9813321715094 Q 152.18435994378444 -450.7041559730233 157.35582710185986 -452.4269797745372 Q 162.52729425993527 -454.14980357605106 165.97493903198557 -455.872627377565 Q 169.42258380403587 -457.59545117907885 174.59405096211128 -459.3182749805927 Q 179.7655181201867 -461.0410987821066 183.213162892237 -461.0410987821066 Q 186.6608076642873 -461.0410987821066 188.3846300503124 -461.0410987821066 Q 190.10845243633753 -461.0410987821066 193.55609720838788 -461.0410987821066 Q 197.00374198043824 -461.0410987821066 198.7275643664633 -461.0410987821066 Q 200.45138675248836 -461.0410987821066 202.17520913851354 -461.0410987821066 Q 203.8990315245387 -461.0410987821066 205.6228539105639 -461.0410987821066 Q 207.34667629658907 -461.0410987821066 209.0704986826142 -461.0410987821066 Q 210.7943210686393 -461.0410987821066 212.51814345466443 -461.0410987821066 Q 214.24196584068955 -461.0410987821066 217.68961061273984 -461.0410987821066 Q 221.13725538479014 -461.0410987821066 221.13725538479014 -459.3182749805927 Q 221.13725538479014 -457.59545117907885 224.58490015684043 -457.59545117907885 Q 228.03254492889073 -457.59545117907885 228.03254492889073 -455.872627377565 Q 228.03254492889073 -454.14980357605106 233.20401208696615 -452.4269797745372 Q 238.37547924504156 -450.7041559730233 241.8231240170918 -447.2585083699955 Q 245.27076878914204 -443.8128607669678 246.99459117516727 -442.0900369654539 Q 248.7184135611925 -440.36721316394005 250.44223594721757 -438.6443893624262 Q 252.16605833324263 -436.92156556091226 255.61370310529298 -436.92156556091226 Q 259.06134787734334 -436.92156556091226 260.7851702633684 -436.92156556091226 Q 262.50899264939346 -436.92156556091226 264.2328150354187 -435.1987417593984 Q 265.95663742144393 -433.4759179578845 267.68045980746905 -431.75309415637065 Q 269.40428219349417 -430.0302703548568 272.85192696554446 -430.0302703548568 Q 276.29957173759476 -430.0302703548568 279.74721650964506 -423.13897514880125 Q 283.19486128169535 -416.2476799427458 283.19486128169535 -412.80203233971804 Q 283.19486128169535 -409.3563847366903 283.19486128169535 -405.91073713366256 Q 283.19486128169535 -402.46508953063477 283.19486128169535 -400.74226572912085 Q 283.19486128169535 -399.019441927607 283.19486128169535 -393.85097052306537 Q 283.19486128169535 -388.6824991185237 281.4710388956702 -383.51402771398205 Q 279.747216509645 -378.34555630944044 279.747216509645 -374.8999087064127 Q 279.747216509645 -371.45426110338497 279.747216509645 -368.0086135003572 Q 279.747216509645 -364.56296589732943 278.0233941236199 -361.1173182943017 Q 276.29957173759476 -357.67167069127396 274.5757493515695 -354.22602308824617 Q 272.8519269655443 -350.7803754852184 272.8519269655443 -345.6119040806768 Q 272.8519269655443 -340.44343267613516 272.8519269655443 -335.2749612715935 Q 272.8519269655443 -330.1064898670519 272.8519269655443 -326.66084226402415 Q 272.8519269655443 -323.2151946609964 272.8519269655443 -321.49237085948255 Q 272.8519269655443 -319.7695470579686 272.8519269655443 -316.3238994549409 Q 272.8519269655443 -312.87825185191315 272.8519269655443 -307.7097804473715 Q 272.8519269655443 -302.5413090428299 272.8519269655443 -300.818485241316 Q 272.8519269655443 -299.0956614398021 272.8519269655443 -295.65001383677435 Q 272.8519269655443 -292.2043662337466 272.8519269655443 -288.7587186307188 Q 272.8519269655443 -285.3130710276911 272.8519269655443 -283.5902472261772 Q 272.8519269655443 -281.8674234246633 272.8519269655443 -280.1445996231494 Q 272.8519269655443 -278.42177582163555 272.8519269655443 -276.6989520201217 Q 272.8519269655443 -274.9761282186078 272.8519269655443 -271.53048061558 Q 272.8519269655443 -268.0848330125523 272.8519269655443 -266.3620092110384 Q 272.8519269655443 -264.63918540952454 272.8519269655443 -262.9163616080107 Q 272.8519269655443 -261.19353780649675 272.8519269655443 -259.47071400498294 Q 272.8519269655443 -257.7478902034691 274.5757493515695 -252.5794187989275 Q 276.29957173759476 -247.41094739438586 278.0233941236199 -245.68812359287196 Q 279.747216509645 -243.96529979135806 279.747216509645 -242.2424759898442 Q 279.747216509645 -240.51965218833033 279.747216509645 -233.62835698227482 Q 279.747216509645 -226.73706177621932 278.0233941236199 -223.29141417319153 Q 276.29957173759476 -219.84576657016373 272.85192696554446 -214.67729516562213 Q 269.40428219349417 -209.50882376108052 262.50899264939363 -202.617528555025 Q 255.6137031052931 -195.72623334896946 255.6137031052931 -192.28058574594172 Q 255.6137031052931 -188.83493814291398 248.71841356119245 -185.38929053988625 Q 241.8231240170918 -181.9436429368585 238.3754792450415 -181.9436429368585 Q 234.9278344729912 -181.9436429368585 233.2040120869661 -181.9436429368585 Q 231.48018970094097 -181.9436429368585 229.75636731491585 -181.9436429368585 Q 228.03254492889073 -181.9436429368585 224.58490015684043 -181.9436429368585 Q 221.13725538479014 -181.9436429368585 219.41343299876496 -181.9436429368585 Q 217.68961061273978 -181.9436429368585 215.96578822671466 -181.9436429368585 Q 214.24196584068955 -181.9436429368585 212.51814345466443 -181.9436429368585 Q 210.7943210686393 -181.9436429368585 205.62285391056383 -183.66646673837238 Q 200.45138675248836 -185.38929053988625 195.27991959441295 -185.38929053988625 Q 190.10845243633753 -185.38929053988625 188.3846300503124 -185.38929053988625 Q 186.6608076642873 -185.38929053988625 183.213162892237 -185.38929053988625 Q 179.7655181201867 -185.38929053988625 172.87022857608616 -188.83493814291398 Q 165.97493903198563 -192.28058574594172 164.25111664596045 -194.0034095474556 Q 162.52729425993527 -195.72623334896946 159.07964948788504 -195.72623334896946 Q 155.6320047158348 -195.72623334896946 152.18435994378444 -197.44905715048333 Q 148.7367151717341 -199.1718809519972 147.01289278570897 -200.89470475351112 Q 145.28907039968385 -202.61752855502505 143.56524801365873 -206.06317615805278 Q 141.8414256276336 -209.50882376108052 141.8414256276336 -211.2316475625944 Q 141.8414256276336 -212.95447136410826 140.11760324160844 -218.1229427686499 Q 138.39378085558326 -223.29141417319153 136.66995846955814 -225.01423797470542 Q 134.94613608353302 -226.73706177621932 133.22231369750784 -226.73706177621932 Q 131.49849131148267 -226.73706177621932 131.49849131148267 -228.4598855777332 Q 131.49849131148267 -230.18270937924706 131.49849131148267 -231.90553318076093 Q 131.49849131148267 -233.6283569822748 131.49849131148267 -235.3511807837887 Q 131.49849131148267 -237.0740045853026 131.49849131148267 -238.79682838681646 Q 131.49849131148267 -240.51965218833033 126.32702415340725 -242.2424759898442 Q 121.15555699533184 -243.96529979135806 121.15555699533184 -247.41094739438583 Q 121.15555699533184 -250.8565949974136 121.15555699533184 -256.0250664019552 Q 121.15555699533184 -261.19353780649675 117.7079122232816 -264.63918540952454 Q 114.26026745123136 -268.0848330125523 114.26026745123136 -269.80765681406615 Q 114.26026745123136 -271.53048061558 114.26026745123136 -274.97612821860776 Q 114.26026745123136 -278.42177582163555 114.26026745123136 -280.1445996231494 Q 114.26026745123136 -281.8674234246633 114.26026745123136 -283.5902472261772 Q 114.26026745123136 -285.3130710276911 114.26026745123136 -290.4815424322327 Q 114.26026745123136 -295.65001383677435 117.7079122232816 -302.5413090428299 Q 121.15555699533184 -309.43260424888535 122.87937938135701 -312.8782518519131 Q 124.60320176738219 -316.3238994549409 124.60320176738219 -319.7695470579687 Q 124.60320176738219 -323.2151946609964 126.32702415340731 -324.9380184625103 Q 128.05084653943243 -326.66084226402415 126.32702415340731 -328.383666065538 Q 124.60320176738219 -330.1064898670519 124.60320176738219 -331.82931366856576 Q 124.60320176738219 -333.5521374700797 124.60320176738219 -335.27496127159355 Q 124.60320176738219 -336.9977850731074 121.15555699533189 -342.1662564776491 L 117.70691222328159 -347.33572788219067" stroke-linecap="round" />
</g>
		<g transform="matrix(0.07 0 0 0.23 -0.46 -1.79)" id="VvfWzAQ3zVzKX88R3eURJ"  >
<path style="stroke: rgb(0,0,0); stroke-width: 2; stroke-dasharray: none; stroke-linecap: round; stroke-dashoffset: 0; stroke-linejoin: round; stroke-miterlimit: 10; fill: rgb(0,0,0); fill-opacity: 0.31; fill-rule: nonzero; opacity: 1;" vector-effect="non-scaling-stroke"  transform=" translate(-193.56, 330.11)" d="M 114.25926745123135 -333.5521374700797 Q 114.26026745123136 -333.5521374700797 117.7079122232816 -333.5521374700797 Q 121.15555699533184 -333.5521374700797 126.32702415340725 -333.5521374700797 Q 131.49849131148267 -333.5521374700797 133.22231369750784 -333.5521374700797 Q 134.94613608353302 -333.5521374700797 136.66995846955814 -333.5521374700797 Q 138.39378085558326 -333.5521374700797 141.84142562763355 -333.5521374700797 Q 145.28907039968385 -333.5521374700797 147.01289278570897 -333.5521374700797 Q 148.7367151717341 -333.5521374700797 150.46053755775927 -333.5521374700797 Q 152.18435994378444 -333.5521374700797 155.63200471583468 -331.82931366856576 Q 159.07964948788492 -330.1064898670519 162.52729425993527 -328.383666065538 Q 165.97493903198563 -326.66084226402415 167.69876141801075 -326.66084226402415 Q 169.42258380403587 -326.66084226402415 171.146406190061 -326.66084226402415 Q 172.8702285760861 -326.66084226402415 178.04169573416158 -326.66084226402415 Q 183.21316289223705 -326.66084226402415 188.38463005031247 -326.66084226402415 Q 193.55609720838788 -326.66084226402415 197.00374198043812 -326.66084226402415 Q 200.45138675248836 -326.66084226402415 205.62285391056383 -326.66084226402415 Q 210.7943210686393 -326.66084226402415 215.96578822671472 -326.66084226402415 Q 221.13725538479014 -326.66084226402415 228.03254492889067 -326.66084226402415 Q 234.9278344729912 -326.66084226402415 238.3754792450415 -326.66084226402415 Q 241.8231240170918 -326.66084226402415 246.99459117516722 -326.66084226402415 Q 252.16605833324263 -326.66084226402415 255.61370310529298 -326.66084226402415 Q 259.06134787734334 -326.66084226402415 260.7851702633684 -326.66084226402415 Q 262.50899264939346 -326.66084226402415 264.2328150354187 -326.66084226402415 Q 265.95663742144393 -326.66084226402415 269.4042821934941 -326.66084226402415 L 272.85292696554427 -326.66084226402415" stroke-linecap="round" />
</g>
		<g transform="matrix(0.07 0 0 0.23 -6.34 -2.19)" id="g2e8PPcdqD11HYTFRNDjQ"  >
<path style="stroke: rgb(0,0,0); stroke-width: 2; stroke-dasharray: none; stroke-linecap: round; stroke-dashoffset: 0; stroke-linejoin: round; stroke-miterlimit: 10; fill: rgb(0,0,0); fill-opacity: 0.31; fill-rule: nonzero; opacity: 1;" vector-effect="non-scaling-stroke"  transform=" translate(-112.54, 331.83)" d="M 110.811622679181 -357.67267069127394 Q 110.812622679181 -357.67167069127396 110.812622679181 -354.22602308824617 Q 110.812622679181 -350.7803754852184 112.53644506520618 -343.88908027916295 Q 114.26026745123136 -336.9977850731074 114.26026745123136 -333.55213747007963 Q 114.26026745123136 -330.1064898670519 114.26026745123136 -326.66084226402415 Q 114.26026745123136 -323.2151946609964 114.26026745123136 -319.7695470579687 Q 114.26026745123136 -316.3238994549409 114.26026745123136 -311.1554280503992 L 114.26026745123136 -305.98595664585764" stroke-linecap="round" />
</g>
		<g transform="matrix(0.07 0 0 0.23 0.55 -15.81)" id="KYb-eHTynBIFfrEMJFTfZ"  >
<path style="stroke: rgb(0,0,0); stroke-width: 2; stroke-dasharray: none; stroke-linecap: round; stroke-dashoffset: 0; stroke-linejoin: round; stroke-miterlimit: 10; fill: rgb(0,0,0); fill-opacity: 0.31; fill-rule: nonzero; opacity: 1;" vector-effect="non-scaling-stroke"  transform=" translate(-207.35, 390.41)" d="M 186.6608076642873 -330.1054898670519 Q 186.6608076642873 -330.1064898670519 184.93698527826217 -331.82931366856576 Q 183.21316289223705 -333.5521374700797 183.21316289223705 -336.9977850731074 Q 183.21316289223705 -340.44343267613516 184.93698527826217 -343.88908027916295 Q 186.6608076642873 -347.3347278821907 186.6608076642873 -352.5031992867323 Q 186.6608076642873 -357.67167069127396 186.6608076642873 -361.1173182943017 Q 186.6608076642873 -364.56296589732943 190.1084524363376 -368.0086135003572 Q 193.55609720838788 -371.45426110338497 193.55609720838788 -374.8999087064127 Q 193.55609720838788 -378.34555630944044 193.55609720838788 -380.0683801109543 Q 193.55609720838788 -381.79120391246823 195.27991959441306 -383.5140277139821 Q 197.00374198043824 -385.23685151549597 198.7275643664633 -388.68249911852376 Q 200.45138675248836 -392.1281467215515 200.45138675248836 -397.2966181260931 Q 200.45138675248836 -402.46508953063477 202.17520913851354 -402.46508953063477 Q 203.8990315245387 -402.46508953063477 203.8990315245387 -405.91073713366256 Q 203.8990315245387 -409.3563847366903 205.6228539105639 -411.07920853820417 Q 207.34667629658907 -412.80203233971804 209.0704986826142 -416.2476799427458 Q 210.7943210686393 -419.69332754577357 212.51814345466443 -424.8617989503152 Q 214.24196584068955 -430.0302703548568 214.24196584068955 -435.19874175939844 Q 214.24196584068955 -440.36721316394005 215.96578822671466 -440.36721316394005 Q 217.68961061273978 -440.36721316394005 219.41343299876496 -442.0900369654539 Q 221.13725538479014 -443.8128607669678 221.13725538479014 -445.53568456848166 Q 221.13725538479014 -447.2585083699955 226.30872254286555 -448.9813321715094 L 231.48118970094097 -450.7051559730233" stroke-linecap="round" />
</g>
</g>
</g>
</svg>